<?xml version="1.0" encoding="UTF-8" standalone="no"?>
<!-- Generator: Adobe Illustrator 16.0.0, SVG Export Plug-In . SVG Version: 6.00 Build 0)  -->

<svg
   xmlns:dc="http://purl.org/dc/elements/1.1/"
   xmlns:cc="http://creativecommons.org/ns#"
   xmlns:rdf="http://www.w3.org/1999/02/22-rdf-syntax-ns#"
   xmlns:svg="http://www.w3.org/2000/svg"
   xmlns="http://www.w3.org/2000/svg"
   xmlns:sodipodi="http://sodipodi.sourceforge.net/DTD/sodipodi-0.dtd"
   xmlns:inkscape="http://www.inkscape.org/namespaces/inkscape"
   version="1.1"
   x="0px"
   y="0px"
   width="5000"
   height="5000"
   viewBox="0 0 4999.9999 4999.9998"
   enable-background="new 0 0 841.89 595.275"
   xml:space="preserve"
   id="svg2"
   inkscape:version="0.91 r13725"
   sodipodi:docname="Logo Black_Green Square.svg"
   inkscape:export-filename="D:\Downloads\AT\Images\Logo\Black_Green\Logo Black_Green Medium.png"
   inkscape:export-xdpi="89.988396"
   inkscape:export-ydpi="89.988396"><metadata
     id="metadata169"><rdf:RDF><cc:Work
         rdf:about=""><dc:format>image/svg+xml</dc:format><dc:type
           rdf:resource="http://purl.org/dc/dcmitype/StillImage" /><dc:title></dc:title></cc:Work></rdf:RDF></metadata><defs
     id="defs167" /><sodipodi:namedview
     pagecolor="#ffffff"
     bordercolor="#666666"
     borderopacity="1"
     objecttolerance="10"
     gridtolerance="10"
     guidetolerance="10"
     inkscape:pageopacity="0"
     inkscape:pageshadow="2"
     inkscape:window-width="1855"
     inkscape:window-height="1056"
     id="namedview165"
     showgrid="false"
     inkscape:zoom="0.17104372"
     inkscape:cx="2891.1081"
     inkscape:cy="2619.4033"
     inkscape:window-x="65"
     inkscape:window-y="24"
     inkscape:window-maximized="1"
     inkscape:current-layer="svg2" /><g
     id="Laag_8"
     transform="matrix(18.516154,0,0,18.516153,-3202.8308,-1940.4167)"><g
       id="g51"><path
         d="m 393.828,195.585 c 0,0 0,3.773 -0.063,4.924 -0.063,1.151 -0.703,2.11 -3.133,0.832 -1.792,2.11 -5.884,7.099 -8.569,6.65 -2.686,-0.447 -3.838,-3.326 -3.838,-3.326 -1.598,1.023 -2.43,1.28 -3.517,3.07 0.896,0.32 3.389,2.238 4.22,3.006 0.832,0.768 1.792,1.47 4.093,0.192 2.303,-1.279 4.285,-1.918 6.331,-2.558 2.046,-0.64 4.541,-1.408 6.268,-2.559 1.726,-1.151 5.946,-3.518 6.65,-4.028 0.703,-0.512 2.622,-1.152 3.069,-3.134 0.447,-1.982 0.767,-3.006 0.767,-3.645 0,-0.64 1.023,-1.407 1.471,-1.599 0.448,-0.191 1.663,-1.087 3.005,-2.302 1.152,-1.023 1.791,-0.448 1.791,-0.448 0,0 2.493,0.448 3.517,0.448 1.023,0 2.045,1.023 0.128,1.663 0.959,0.768 1.791,1.343 1.791,1.534 0,0.193 -0.512,1.408 -1.918,0.705 -0.831,-0.448 -1.215,-0.768 -1.215,-0.768 0,0 -0.128,1.792 -3.39,3.39 -0.575,2.366 -1.022,4.54 -3.133,5.883 -2.111,1.343 -7.93,6.139 -11.831,9.72 -3.902,3.581 -9.849,6.331 -11.319,6.906 -1.471,0.575 -3.39,0.704 -4.604,0.448 -1.215,-0.256 -3.964,-0.064 -6.971,-0.193 -0.639,2.047 -1.79,7.227 -4.093,8.953 -0.896,0.767 -3.709,4.604 -5.18,6.906 -1.471,2.303 -7.227,11 -9.017,12.918 -1.791,1.918 -5.372,5.756 -5.308,7.035 0.064,1.279 6.267,5.883 18.608,16.499 9.849,8.378 9.146,8.826 9.849,9.785 0.703,0.959 2.366,1.471 3.069,2.111 0.705,0.639 2.814,3.324 3.454,7.673 0.639,4.349 0.511,5.373 1.727,8.122 2.046,5.054 3.239,9.487 4.433,15.2 1.194,5.714 2.814,12.706 2.814,12.706 1.193,-0.086 2.217,-0.938 3.411,1.704 1.194,2.645 1.364,4.18 1.108,4.436 0.598,0.768 2.899,4.519 3.069,5.711 0.939,0.168 2.899,0.68 3.327,1.449 0.766,0 3.325,-0.258 3.069,0.854 2.813,0.341 5.371,0.851 5.371,1.191 2.986,-0.082 5.627,-0.594 6.993,-0.168 1.365,0.424 3.155,2.045 3.496,3.836 0.598,0.17 1.365,1.449 1.365,2.727 -0.938,0.94 -3.583,3.071 -3.583,3.071 l -1.619,-0.257 -0.17,1.023 -1.876,1.023 -0.853,-0.596 -0.426,0.17 -0.34,0.938 -2.217,0.939 -0.512,-0.766 -0.852,0.512 -0.256,0.85 -2.302,0.683 -0.427,-0.853 -0.595,0.17 -0.256,1.021 -2.047,0.43 -0.511,-1.023 -7.162,1.791 0.255,1.193 -1.109,0.084 0.085,0.852 -2.558,0.684 -0.683,-0.598 -1.107,1.449 -1.621,0 -4.006,1.195 c 0,0 -2.644,-3.669 -2.133,-6.057 -0.852,-2.982 -1.108,-8.781 -0.511,-15.604 -0.853,-1.277 -1.023,-1.705 -0.937,-2.556 -0.683,-1.28 -1.536,-3.838 -0.854,-4.521 -25.494,-34.02 -39.136,-45.105 -65.74,-58.406 9.892,2.388 28.991,8.013 51.501,28.819 -2.387,-4.263 -3.752,-6.479 -3.752,-6.479 0,0 -27.286,-26.433 -73.158,-39.394 12.96,1.706 36.665,6.651 62.073,22.511 -3.751,-5.116 -4.945,-6.48 -4.945,-6.48 0,0 -40.587,-26.944 -83.731,-30.355 13.982,-0.342 37.005,0.51 63.438,11.936 -27.968,-13.813 -49.794,-26.944 -103.683,-34.618 16.03,0.511 43.826,1.024 87.482,19.1 -20.378,-14.24 -51.33,-31.889 -118.86,-42.121 15.603,0.255 65.228,1.279 131.48,41.44 4.605,-3.837 14.836,-18.674 16.627,-24.046 1.79,-5.371 5.116,-18.673 5.116,-18.673 0.255,-0.853 0.17,-1.108 -0.341,-1.876 -0.511,-0.767 -5.541,-7.503 -6.139,-8.27 -0.599,-0.768 -2.302,-3.837 -3.326,-5.287 -1.023,-1.45 -4.263,-7.164 -5.798,-9.379 -1.534,-2.216 -4.689,-5.714 -6.907,-9.464 -2.216,-3.751 -11.68,-19.698 -12.107,-25.24 -0.427,-5.541 0.682,-18.416 -0.17,-21.145 -0.852,-2.728 0.086,-3.24 2.473,-0.17 0.596,-0.938 1.022,-1.534 2.302,-0.34 1.108,-0.342 3.581,-1.705 4.945,2.813 1.364,4.518 2.729,11 1.364,13.898 -1.364,2.898 -3.238,5.713 0.513,11.597 3.751,5.883 9.635,13.044 12.449,16.028 2.813,2.985 4.605,5.714 5.542,8.356 0.938,2.644 4.861,4.86 6.566,6.48 1.705,1.621 3.496,3.156 4.348,5.288 0.852,2.131 3.838,3.751 6.396,5.542 2.559,1.79 7.588,6.053 7.844,8.271 0.938,-0.853 1.45,-0.938 1.962,-3.412 0.512,-2.472 1.107,-9.634 4.348,-12.533 3.24,-2.899 8.1,-5.885 13.387,-2.899 5.286,2.985 10.573,8.101 8.953,14.068 -1.197,3.669 -2.434,4.734 -2.434,4.734 z"
         id="path53"
         inkscape:connector-curvature="0"
         style="fill:#00723f" /><path
         d="m 266.322,242.285 c -27.175,0.298 -37.25,6.97 -36.054,9.277 1.192,2.305 4.583,3.042 7.171,0.503 2.588,-2.538 9.465,-6.966 28.883,-9.78 z"
         id="path55"
         inkscape:connector-curvature="0"
         style="fill:#00723f" /><path
         d="m 311.687,260.157 c -26.845,-10.271 -39.349,-7.627 -39.069,-4.894 0.277,2.735 3.325,4.775 6.859,3.285 3.531,-1.489 12.017,-3.172 32.21,1.609 z"
         id="path57"
         inkscape:connector-curvature="0"
         style="fill:#00723f" /><path
         d="m 326.91,275.886 c -17.381,-8.981 -26.042,-8.141 -26.059,-6.269 -0.02,1.87 1.887,3.481 4.391,2.741 2.501,-0.741 8.369,-1.238 21.668,3.528 z"
         id="path59"
         inkscape:connector-curvature="0"
         style="fill:#00723f" /><path
         d="m 280.518,250.186 c -23.154,-3.869 -31.058,0.373 -29.797,2.55 1.259,2.178 4.226,3.328 6.171,1.526 1.945,-1.803 7.352,-4.59 23.626,-4.076 z"
         id="path61"
         inkscape:connector-curvature="0"
         style="fill:#00723f" /><path
         d="m 257.297,232.271 c -27.726,-7.574 -39.908,-3.709 -39.36,-1.017 0.544,2.694 3.78,4.422 7.149,2.593 3.368,-1.83 11.646,-4.342 32.211,-1.576 z"
         id="path63"
         inkscape:connector-curvature="0"
         style="fill:#00723f" /><path
         d="m 299.84,245.293 c -38.158,-12.993 -59.455,-11.406 -60.303,-8.571 -0.847,2.834 3.072,5.206 9.439,3.995 6.366,-1.212 20.768,-2.171 50.864,4.576 z"
         id="path65"
         inkscape:connector-curvature="0"
         style="fill:#00723f" /><path
         d="m 277.418,225.471 c -42.444,-15.76 -66.018,-14.176 -66.92,-10.856 -0.901,3.315 3.473,6.152 10.51,4.814 7.037,-1.339 22.979,-2.277 56.41,6.042 z"
         id="path67"
         inkscape:connector-curvature="0"
         style="fill:#00723f" /></g></g><g
     id="Laag_10"
     transform="matrix(18.516154,0,0,18.516153,-3202.8308,-1940.4167)"><g
       id="g134"><path
         d="m 385.387,342.118 c -0.853,-1.279 -1.023,-1.707 -0.939,-2.56 -0.549,-1.03 -1.195,-2.873 -1.076,-3.917 C 355.284,300.83 314.148,270.779 258.509,259.749 142.377,236.728 93.588,298.177 93.588,298.177 148.141,249.63 223.21,258.215 256.972,267.376 c 10.747,3.057 20.68,6.552 29.877,10.349 -0.302,0.315 -0.535,0.563 -0.674,0.716 -1.683,1.828 -4.152,3.933 -4.583,4.296 -7.299,-2.789 -12.19,-2.429 -14.823,-2.006 -3.418,0.552 -4.178,0.536 -11.487,0.152 -0.168,-0.916 -1.309,-1.404 -2.394,-1.227 -0.348,-1.069 -1.992,-0.59 -3.708,0.156 -1.462,-1.228 -3.167,-1.417 -4.512,-1.303 -0.327,-0.391 -0.808,-0.544 -1.277,-0.588 -0.533,-0.402 -1.201,-0.905 -2.087,-1.57 -4.274,-3.485 -7.551,-5.104 -9.236,-5.452 -0.917,-1.438 -4.372,-1.373 -6.142,-1.468 -0.682,1.005 -1.287,3.783 -1.287,3.783 l -0.937,1.259 0.666,1.859 -1.015,0.163 -0.941,2.605 0.755,0.426 -0.508,0.842 1.175,0.506 -2.572,7.071 -1.177,-0.181 -0.856,1.85 0.921,0.768 -0.423,0.583 -0.926,-0.089 -0.689,2.354 0.668,0.512 -0.09,1.094 -1.007,-0.009 -0.523,2.358 0.839,0.847 -0.169,0.505 -1.134,0.279 -0.144,2.158 0.751,0.596 c 0,0 -0.34,0.672 -1.104,1.264 0.158,1.15 0.463,4.766 0.463,4.766 0,0 1.803,0.832 3.118,0.51 6.064,1.516 6.922,-4.553 8.904,-6.838 1.318,-0.326 2.805,-2.451 3.963,-3.592 1.147,0.173 1.648,-0.975 2.479,-2.118 0.66,-0.129 1.648,-0.578 2.439,-1.351 0.077,-0.355 0.174,-0.704 0.286,-1.047 1.646,0.08 3.708,-0.017 4.867,-0.119 0.889,0.751 2.73,1.083 5.05,1.209 2.319,0.13 1.871,-1.149 2.563,-2.691 0,0 17.61,5.389 21.646,6.354 2.018,0.481 4.345,0.773 6.388,1.047 -0.013,0.053 -0.022,0.118 -0.033,0.168 2.21,0.791 4.065,0.607 5.223,0.285 1.157,-0.321 1.746,-1.481 4.058,-2.127 2.308,-0.642 11.785,-5.352 18.318,-9.001 0.517,-0.288 1.006,-0.634 1.511,-0.951 47.962,25.115 70.617,57.626 78.414,71.082 -0.002,-0.238 -0.006,-0.479 0.042,-0.699 -0.852,-2.986 -1.109,-8.786 -0.511,-15.603 z"
         id="path136"
         inkscape:connector-curvature="0" /></g></g><g
     id="Layer_3"
     transform="matrix(13.880299,0,0,13.880297,-1232.6245,-252.83064)" /></svg>